HIERARCHY
ROOT root
{
	OFFSET 0.000000 0.000000 0.000000
	CHANNELS 6 Xposition Yposition Zposition Zrotation Yrotation Xrotation
	JOINT lhip
	{
		OFFSET 0.058581 -0.082280 -0.017664
		CHANNELS 3 Zrotation Yrotation Xrotation
		JOINT lknee
		{
			OFFSET 0.043451 -0.386469 0.008037
			CHANNELS 3 Zrotation Yrotation Xrotation
			JOINT lankle
			{
				OFFSET -0.014790 -0.426874 -0.037428
				CHANNELS 3 Zrotation Yrotation Xrotation
				JOINT ltoe
				{
					OFFSET 0.041054 -0.060286 0.122042
					CHANNELS 3 Zrotation Yrotation Xrotation
					End Site
					{
						OFFSET 0.000000 0.000000 0.000000
					}
				}
			}
		}
	}
	JOINT rhip
	{
		OFFSET -0.060310 -0.090513 -0.013543
		CHANNELS 3 Zrotation Yrotation Xrotation
		JOINT rknee
		{
			OFFSET -0.043257 -0.383688 -0.004843
			CHANNELS 3 Zrotation Yrotation Xrotation
			JOINT rankle
			{
				OFFSET 0.019056 -0.420046 -0.034562
				CHANNELS 3 Zrotation Yrotation Xrotation
				JOINT rtoe
				{
					OFFSET -0.034840 -0.062106 0.130323
					CHANNELS 3 Zrotation Yrotation Xrotation
					End Site
					{
						OFFSET 0.000000 0.000000 0.000000
					}
				}
			}
		}
	}
	JOINT lowerback
	{
		OFFSET 0.004439 0.124404 -0.038385
		CHANNELS 3 Zrotation Yrotation Xrotation
		JOINT upperback
		{
			OFFSET 0.004488 0.137956 0.026820
			CHANNELS 3 Zrotation Yrotation Xrotation
			JOINT chest
			{
				OFFSET -0.002265 0.056032 0.002855
				CHANNELS 3 Zrotation Yrotation Xrotation
				JOINT lowerneck
				{
					OFFSET -0.013390 0.211636 -0.033468
					CHANNELS 3 Zrotation Yrotation Xrotation
					JOINT upperneck
					{
						OFFSET 0.010113 0.088937 0.050410
						CHANNELS 3 Zrotation Yrotation Xrotation
						End Site
						{
							OFFSET 0.000000 0.000000 0.000000
						}
					}
				}
				JOINT lclavicle
				{
					OFFSET 0.071702 0.114000 -0.018898
					CHANNELS 3 Zrotation Yrotation Xrotation
					JOINT lshoulder
					{
						OFFSET 0.122921 0.045205 -0.019046
						CHANNELS 3 Zrotation Yrotation Xrotation
						JOINT lelbow
						{
							OFFSET 0.255332 -0.015649 -0.022946
							CHANNELS 3 Zrotation Yrotation Xrotation
							JOINT lwrist
							{
								OFFSET 0.265709 0.012698 -0.007375
								CHANNELS 3 Zrotation Yrotation Xrotation
								End Site
								{
									OFFSET 0.000000 0.000000 0.000000
								}
							}
						}
					}
				}
				JOINT rclavicle
				{
					OFFSET -0.082954 0.112472 -0.023707
					CHANNELS 3 Zrotation Yrotation Xrotation
					JOINT rshoulder
					{
						OFFSET -0.113228 0.046853 -0.008472
						CHANNELS 3 Zrotation Yrotation Xrotation
						JOINT relbow
						{
							OFFSET -0.260127 -0.014369 -0.031269
							CHANNELS 3 Zrotation Yrotation Xrotation
							JOINT rwrist
							{
								OFFSET -0.269108 0.006794 -0.006027
								CHANNELS 3 Zrotation Yrotation Xrotation
								End Site
								{
									OFFSET 0.000000 0.000000 0.000000
								}
							}
						}
					}
				}
			}
		}
	}
}
MOTION
Frames: 6
Frame Time: 0.033333
0.457096 0.178103 0.992411 88.067993 2.796805 95.679757 3.794087 4.054238 -2.875631 3.654922 -2.858661 -7.293740 -0.993639 10.831557 -3.338259 0.000000 -0.000000 0.000000 -1.327028 -1.779260 -7.211589 -1.247684 2.577632 1.178161 4.131531 -6.773356 -3.474147 0.000000 -0.000000 0.000000 -1.338499 0.700500 -0.309478 3.117336 -2.796774 1.234038 0.053014 2.226325 -7.696620 0.081007 -9.713805 1.850498 6.247316 -10.426168 -6.935003 -23.205673 2.160149 -6.507088 -59.769836 -4.065819 26.133472 4.660877 -14.299212 12.323304 -9.499459 -8.334469 14.722271 23.705599 4.179911 -2.335627 52.796861 4.385584 21.254912 0.658197 13.808710 10.804987 6.356486 2.798059 9.166908 
0.457184 0.177988 0.992422 88.008427 2.801793 95.553019 3.820039 4.068247 -2.693941 3.643115 -2.819894 -7.345541 -1.030812 10.860377 -3.301923 0.000000 -0.000000 0.000000 -1.319848 -1.816722 -7.070638 -1.301580 2.577075 1.172683 4.291173 -6.753727 -3.389166 0.000000 -0.000000 0.000000 -1.285003 0.753358 -0.300045 3.044846 -2.788285 1.079716 -0.003943 2.200287 -7.500085 0.072402 -9.798721 2.242481 6.305321 -10.488146 -6.943465 -23.077204 1.841750 -6.252911 -59.811818 -4.078690 25.990955 4.789374 -14.281456 12.167806 -9.482050 -8.362415 14.544709 23.769869 4.662708 -2.006947 52.818754 4.290563 21.156190 0.571922 13.799757 10.589063 6.306992 2.869502 8.983149 
0.457264 0.177694 0.992293 87.960762 2.846111 95.503289 3.881391 4.078636 -2.606744 3.641613 -2.790702 -7.402325 -1.124432 10.906993 -3.251396 0.000000 -0.000000 0.000000 -1.234050 -1.783334 -6.973578 -1.306937 2.667046 1.052927 4.351963 -6.782655 -3.426180 0.000000 -0.000000 0.000000 -1.199033 0.801253 -0.436876 3.033288 -2.825990 1.023689 -0.119890 2.126598 -7.370610 0.038178 -9.814597 2.871238 6.375310 -10.394735 -7.103053 -22.955207 1.478352 -5.986855 -59.825938 -4.057187 25.909117 4.963761 -14.273012 11.836100 -9.578053 -8.340986 14.480043 23.804816 5.335559 -1.634057 52.814112 4.220434 21.199744 0.586319 13.748878 10.355682 6.314564 2.900015 8.742003 
0.457478 0.177104 0.992198 88.161491 2.852189 95.774434 3.960606 3.997642 -2.963128 3.566299 -2.885039 -7.336315 -1.259618 10.941726 -3.242808 0.000000 -0.000000 0.000000 -1.019918 -1.859169 -7.112134 -1.472881 2.845453 0.807511 4.211126 -7.030778 -3.472529 0.000000 -0.000000 0.000000 -1.004440 0.916034 -0.577598 2.898582 -2.846819 0.926388 -0.413501 1.805801 -7.721798 0.252640 -9.933835 3.283523 6.286892 -10.439295 -6.958149 -22.826193 1.422600 -5.840294 -59.743547 -4.003371 26.007593 5.010437 -14.507597 11.742052 -9.909650 -7.748249 14.805901 23.963254 5.493004 -1.529426 52.881504 4.162045 21.445412 0.897520 13.619174 10.556367 6.899289 2.719193 8.610432 
0.457456 0.177129 0.992130 88.146782 2.855282 95.795655 3.964986 3.998150 -2.972325 3.561181 -2.872150 -7.357530 -1.252797 10.938398 -3.221261 0.000000 -0.000000 0.000000 -1.013021 -1.854466 -7.137226 -1.471993 2.834101 0.786673 4.197230 -7.019126 -3.448036 0.000000 -0.000000 0.000000 -0.988675 0.925204 -0.568337 2.889203 -2.848784 0.920817 -0.426512 1.809413 -7.759291 0.263009 -9.940846 3.320096 6.273441 -10.441596 -6.905770 -22.850166 1.404479 -5.845551 -59.760667 -4.022247 26.031635 5.015912 -14.462083 11.720576 -9.867880 -7.754807 14.812640 23.967196 5.506763 -1.501451 52.914763 4.177307 21.474697 0.902077 13.635236 10.576575 6.847933 2.707485 8.603890 
0.457462 0.177245 0.991970 88.148503 2.862727 95.840016 3.969538 3.993079 -3.021913 3.561188 -2.870707 -7.369172 -1.235184 10.939150 -3.213051 0.000000 -0.000000 0.000000 -1.000311 -1.839465 -7.187523 -1.476868 2.815434 0.773257 4.171716 -7.004536 -3.430230 0.000000 -0.000000 0.000000 -1.042440 0.906748 -0.474243 2.926024 -2.875562 0.770656 -0.350446 1.744118 -7.836616 0.219389 -9.941094 3.438052 6.191171 -10.323216 -6.663537 -22.877593 1.615553 -5.946048 -59.889928 -3.990950 26.194463 5.026428 -14.436298 11.790663 -9.775393 -7.813765 14.775869 23.892711 5.450445 -1.589276 52.978329 4.184310 21.658487 1.054253 13.601000 10.675302 6.808539 2.698042 8.556513 
